# xmcd
# Copyright (C) 1995-1998 Ti Kan
#
# Track frame offsets:
#       150
#       10200
#       27755
#       43380
#       66542
#       89052
#       109835
#       125937
#       142670
#       162682
#       183665
#       204022
#       222070
#
# Disc length: 3116 seconds
#
# Revision: 0
# Processed by: cddbd v1.5.1PL0 Copyright (c) Steve Scherf et al.
# Submitted via: CD-Transfer v1.0
#
DISCID=c40c2a0d
DTITLE=Lou Geniuz - 
DYEAR=99
DGENRE=
TTITLE0=The Premier
TTITLE1=Next 2 U
TTITLE2=It's A New Day
TTITLE3=This Is The Only Way
TTITLE4=Why Do You Play Me Like That
TTITLE5=Oner More Night
TTITLE6=Show Goes On
TTITLE7=Gimmie Gimmie
TTITLE8=Angela
TTITLE9=Keep The Secret
TTITLE10=Summerjam
TTITLE11=Like The Real Lovers Do
TTITLE12=Reconnection
EXTD=
EXTT0=
EXTT1=
EXTT2=
EXTT3=
EXTT4=
EXTT5=
EXTT6=
EXTT7=
EXTT8=
EXTT9=
EXTT10=
EXTT11=
EXTT12=
PLAYORDER=
